HIERARCHY
ROOT Hips
{
	OFFSET 0.000000 0.000000 0.000000
	CHANNELS 6 Xposition Yposition Zposition Xrotation Yrotation Zrotation
	JOINT LeftUpLeg_virtual
	{
		OFFSET 0.000000 0.000000 0.000000
		CHANNELS 3 Xrotation Yrotation Zrotation
		JOINT LeftUpLeg
		{
			OFFSET 15.427100 -6.655098 0.678600
			CHANNELS 3 Xrotation Yrotation Zrotation
			JOINT LeftLeg
			{
				OFFSET 4.081073 -39.591068 13.024000
				CHANNELS 3 Xrotation Yrotation Zrotation
				JOINT LeftFoot
				{
					OFFSET -4.081074 -37.707932 -15.979700
					CHANNELS 3 Xrotation Yrotation Zrotation
					JOINT LeftToeBase
					{
						OFFSET 5.346399 -15.068900 20.645000
						CHANNELS 3 Xrotation Yrotation Zrotation
						JOINT LeftToe_End
						{
							OFFSET 2.754700 0.931300 11.300900
							CHANNELS 3 Xrotation Yrotation Zrotation
							End Site
							{
								OFFSET 0 0 0
							}
						}
					}
				}
			}
		}
	}
	JOINT RightUpLeg_virtual
	{
		OFFSET 0.000000 0.000000 0.000000
		CHANNELS 3 Xrotation Yrotation Zrotation
		JOINT RightUpLeg
		{
			OFFSET -15.569500 -6.655098 0.678600
			CHANNELS 3 Xrotation Yrotation Zrotation
			JOINT RightLeg
			{
				OFFSET -4.081825 -39.591045 13.023800
				CHANNELS 3 Xrotation Yrotation Zrotation
				JOINT RightFoot
				{
					OFFSET 4.081824 -37.707954 -15.979600
					CHANNELS 3 Xrotation Yrotation Zrotation
					JOINT RightToeBase
					{
						OFFSET -5.346400 -15.068900 20.645000
						CHANNELS 3 Xrotation Yrotation Zrotation
						JOINT RightToe_End
						{
							OFFSET -2.754700 0.931300 11.300900
							CHANNELS 3 Xrotation Yrotation Zrotation
							End Site
							{
								OFFSET 0 0 0
							}
						}
					}
				}
			}
		}
	}
	JOINT Spine_virtual
	{
		OFFSET 0.000000 0.000000 0.000000
		CHANNELS 3 Xrotation Yrotation Zrotation
		JOINT Spine
		{
			OFFSET -0.279200 12.230698 -2.892100
			CHANNELS 3 Xrotation Yrotation Zrotation
			JOINT Spine1
			{
				OFFSET -0.232667 10.192268 -1.242267
				CHANNELS 3 Xrotation Yrotation Zrotation
				JOINT Spine1_split
				{
					OFFSET -0.232667 10.192268 -1.242267
					CHANNELS 3 Xrotation Yrotation Zrotation
					JOINT Spine2
					{
						OFFSET -0.232667 10.192268 -1.242267
						CHANNELS 3 Xrotation Yrotation Zrotation
						JOINT Neck_virtual
						{
							OFFSET 0.000000 0.000000 0.000000
							CHANNELS 3 Xrotation Yrotation Zrotation
							JOINT Neck
							{
								OFFSET -0.418800 17.814194 8.416900
								CHANNELS 3 Xrotation Yrotation Zrotation
								JOINT Head
								{
									OFFSET 0.000000 7.031097 3.806800
									CHANNELS 3 Xrotation Yrotation Zrotation
									JOINT HeadTop_End
									{
										OFFSET 0.000000 24.646606 12.978600
										CHANNELS 3 Xrotation Yrotation Zrotation
										End Site
										{
											OFFSET 0 0 0
										}
									}
								}
							}
						}
						JOINT LeftShoulder_virtual
						{
							OFFSET 0.000000 0.000000 0.000000
							CHANNELS 3 Xrotation Yrotation Zrotation
							JOINT LeftShoulder
							{
								OFFSET 8.476499 7.247704 -3.868750
								CHANNELS 3 Xrotation Yrotation Zrotation
								JOINT LeftShoulder_split
								{
									OFFSET 8.476499 7.247704 -3.868750
									CHANNELS 3 Xrotation Yrotation Zrotation
									JOINT LeftArm
									{
										OFFSET 9.308998 -2.777710 0.208600
										CHANNELS 3 Xrotation Yrotation Zrotation
										JOINT LeftForeArm
										{
											OFFSET 29.972298 0.000000 0.000000
											CHANNELS 3 Xrotation Yrotation Zrotation
											JOINT LeftHand
											{
												OFFSET 26.026505 0.000000 0.000000
												CHANNELS 3 Xrotation Yrotation Zrotation
												End Site
												{
													OFFSET 0 0 0
												}
											}
										}
									}
								}
							}
						}
						JOINT RightShoulder_virtual
						{
							OFFSET 0.000000 0.000000 0.000000
							CHANNELS 3 Xrotation Yrotation Zrotation
							JOINT RightShoulder
							{
								OFFSET -7.570500 7.247704 -3.868750
								CHANNELS 3 Xrotation Yrotation Zrotation
								JOINT RightShoulder_split
								{
									OFFSET -7.570500 7.247704 -3.868750
									CHANNELS 3 Xrotation Yrotation Zrotation
									JOINT RightArm
									{
										OFFSET -9.308998 -2.777710 0.208500
										CHANNELS 3 Xrotation Yrotation Zrotation
										JOINT RightForeArm
										{
											OFFSET -29.972300 0.000000 0.000000
											CHANNELS 3 Xrotation Yrotation Zrotation
											JOINT RightHand
											{
												OFFSET -26.026505 0.000000 0.000000
												CHANNELS 3 Xrotation Yrotation Zrotation
												End Site
												{
													OFFSET 0 0 0
												}
											}
										}
									}
								}
							}
						}
					}
				}
			}
		}
	}
}
MOTION
Frames: 11
Frame Time: 0.03333333
2.739975 48.578903 126.591103 0.000000 0.000000 0.000000 24.043196 -55.291805 31.580134 -29.059583 -45.286644 67.655510 63.913147 -5.946942 -50.741469 -7.296090 3.282551 -35.194175 -0.627154 1.633984 0.675112 0.000000 0.000000 0.000000 24.043196 -55.291805 31.580134 -73.044495 32.665632 -33.133336 94.689986 18.733401 6.836523 -27.204485 -8.046725 17.477132 -0.401177 -1.367621 -0.696600 0.000000 0.000000 0.000000 24.043196 -55.291805 31.580134 35.892566 -1.674096 -11.721611 -1.378876 5.069766 -1.074928 0.000000 0.000000 0.000000 0.000000 0.000000 0.000000 2.611449 4.724522 -0.949074 -13.082889 21.659080 -4.421720 -5.351571 18.588179 -16.713164 0.000000 0.000000 0.000000 2.611449 4.724522 -0.949074 5.150290 -18.900477 -1.489429 0.000000 0.000000 0.000000 -27.251715 24.057079 -30.897874 -92.443790 -80.894028 -81.379307 0.000000 0.000000 0.000000 2.611449 4.724522 -0.949074 -0.410184 26.798794 18.403747 0.000000 0.000000 0.000000 -55.132570 -2.548288 13.757411 -32.600503 59.077072 28.544952 0.000000 0.000000 0.000000 
3.294207 48.626717 128.226105 0.000000 0.000000 0.000000 28.050270 -56.350444 34.176221 -27.165336 -44.516157 71.642804 65.011482 -7.343667 -53.464296 -9.099849 3.283019 -33.805919 -0.586282 1.599813 0.681666 0.000000 0.000000 0.000000 28.050270 -56.350444 34.176221 -74.971025 33.117477 -32.119371 93.003988 18.326584 6.296443 -25.619795 -7.501910 19.669188 -0.381450 -1.361497 -0.730227 0.000000 0.000000 0.000000 28.050270 -56.350444 34.176221 35.755494 -2.309180 -13.999234 -2.211916 5.602697 -0.808055 0.000000 0.000000 0.000000 0.000000 0.000000 0.000000 1.905239 5.369616 -0.299749 -12.094926 22.484185 -4.602856 -6.896206 18.777344 -15.089623 0.000000 0.000000 0.000000 1.905239 5.369616 -0.299749 6.664356 -18.263931 -2.232504 0.000000 0.000000 0.000000 -27.495673 17.707788 -32.135121 -65.949267 -80.866667 -55.485226 0.000000 0.000000 0.000000 1.905239 5.369616 -0.299749 0.392897 28.446683 18.972628 0.000000 0.000000 0.000000 -54.816896 -0.739635 15.725254 -32.159529 59.955694 28.371969 0.000000 0.000000 0.000000 
3.700573 49.503983 129.477005 0.000000 0.000000 0.000000 29.588158 -56.475354 35.298028 -26.479808 -44.708540 71.785370 65.827178 -7.112248 -54.807313 -10.293230 3.424255 -32.686444 -0.553805 1.565673 0.686937 0.000000 0.000000 0.000000 29.588158 -56.475354 35.298028 -74.536666 32.249824 -32.992751 91.231021 16.871455 5.224287 -24.855914 -5.993304 21.564610 -0.375746 -1.327108 -0.740033 0.000000 0.000000 0.000000 29.588158 -56.475354 35.298028 34.196739 -2.730556 -16.037124 -1.873223 5.586118 -0.555360 0.000000 0.000000 0.000000 0.000000 0.000000 0.000000 2.077622 5.368873 0.484105 -12.370051 22.770481 -4.044473 -7.971460 19.199325 -14.250019 0.000000 0.000000 0.000000 2.077622 5.368873 0.484105 6.965535 -19.294367 -2.102320 0.000000 0.000000 0.000000 -28.134852 15.072510 -32.000529 -44.720858 -79.216957 -34.965934 0.000000 0.000000 0.000000 2.077622 5.368873 0.484105 0.326741 28.032102 19.689719 0.000000 0.000000 0.000000 -54.046061 0.106973 18.102725 -34.543128 63.125606 31.386396 0.000000 0.000000 0.000000 
3.997980 50.649750 130.679703 0.000000 0.000000 0.000000 29.524606 -55.818188 34.091708 -26.472708 -45.686883 71.595525 66.379726 -6.688498 -55.595452 -10.898717 3.070723 -31.222478 -0.520816 1.531839 0.692003 0.000000 0.000000 0.000000 29.524606 -55.818188 34.091708 -72.248129 29.552132 -34.392116 89.037779 16.724241 4.774003 -25.173431 -6.146982 21.890763 -0.376822 -1.292772 -0.743410 0.000000 0.000000 0.000000 29.524606 -55.818188 34.091708 31.993859 -2.377892 -15.313141 -0.977222 5.239302 -0.628029 0.000000 0.000000 0.000000 0.000000 0.000000 0.000000 2.798406 5.021166 0.200402 -13.507344 22.638237 -3.211968 -8.766630 19.782781 -13.137923 0.000000 0.000000 0.000000 2.798406 5.021166 0.200402 5.671725 -19.772158 -2.223039 0.000000 0.000000 0.000000 -28.539447 13.287396 -31.982149 -30.990686 -76.716336 -22.028989 0.000000 0.000000 0.000000 2.798406 5.021166 0.200402 -0.985404 26.476612 20.357889 0.000000 0.000000 0.000000 -53.163727 -2.091474 19.482310 -39.765839 67.368096 37.378794 0.000000 0.000000 0.000000 
4.207899 52.408646 131.906830 0.000000 0.000000 0.000000 29.489168 -55.605758 33.022339 -29.778696 -44.795079 67.274447 66.060442 -6.422864 -54.122409 -11.548141 3.371833 -28.619980 -0.485761 1.498817 0.697866 0.000000 0.000000 0.000000 29.489168 -55.605758 33.022339 -69.532753 26.649139 -34.706339 86.232279 15.871042 3.948095 -25.400772 -6.453171 22.445031 -0.385990 -1.259081 -0.731736 0.000000 0.000000 0.000000 29.489168 -55.605758 33.022339 28.793721 -1.979378 -15.066591 0.139936 5.044808 -0.799693 0.000000 0.000000 0.000000 0.000000 0.000000 0.000000 3.774950 4.897883 0.244582 -15.454100 22.260666 -2.134483 -9.282591 20.784069 -11.322586 0.000000 0.000000 0.000000 3.774950 4.897883 0.244582 3.779279 -19.299871 -2.558629 0.000000 0.000000 0.000000 -28.499596 10.733458 -33.466650 -20.073082 -72.353819 -11.946474 0.000000 0.000000 0.000000 3.774950 4.897883 0.244582 -2.283481 24.495654 20.457929 0.000000 0.000000 0.000000 -52.061966 -5.949157 20.419470 -49.271123 71.817226 47.679737 0.000000 0.000000 0.000000 
4.312570 54.815689 132.886185 0.000000 0.000000 0.000000 28.783725 -55.963886 32.068530 -29.614983 -43.912912 63.929526 64.988266 -4.766126 -53.844779 -12.159972 4.105917 -26.578233 -0.458727 1.466369 0.702440 0.000000 0.000000 0.000000 28.783725 -55.963886 32.068530 -66.446696 23.928186 -34.679804 82.832662 14.893077 3.211301 -25.130723 -6.438477 22.561151 -0.388216 -1.226410 -0.729409 0.000000 0.000000 0.000000 28.783725 -55.963886 32.068530 25.167046 -1.822933 -15.952644 1.412936 5.004451 -0.891779 0.000000 0.000000 0.000000 0.000000 0.000000 0.000000 4.845446 4.923206 0.676610 -17.472869 22.343333 -0.683546 -9.413956 21.479222 -9.528127 0.000000 0.000000 0.000000 4.845446 4.923206 0.676610 1.983174 -18.720826 -2.854415 0.000000 0.000000 0.000000 -28.980073 7.871508 -34.787455 -12.649626 -65.888485 -5.439529 0.000000 0.000000 0.000000 4.845446 4.923206 0.676610 -3.426709 22.575554 19.612724 0.000000 0.000000 0.000000 -51.300530 -9.863270 20.734865 -61.127871 74.900777 60.156584 0.000000 0.000000 0.000000 
4.347721 57.426247 133.935440 0.000000 0.000000 0.000000 27.296679 -56.451677 30.503273 -33.101371 -41.228914 56.447327 63.679937 -3.691571 -50.174539 -12.717349 5.154129 -24.014259 -0.436901 1.435147 0.706838 0.000000 0.000000 0.000000 27.296679 -56.451677 30.503273 -63.127067 20.591127 -35.006461 79.218904 13.332342 2.016805 -24.643492 -5.302323 23.085860 -0.388990 -1.194707 -0.728792 0.000000 0.000000 0.000000 27.296679 -56.451677 30.503273 21.758220 -1.416409 -15.328300 2.616178 4.650876 -1.409687 0.000000 0.000000 0.000000 0.000000 0.000000 0.000000 5.781628 4.614107 0.328042 -19.407170 22.756869 1.044418 -8.841005 22.040057 -7.884901 0.000000 0.000000 0.000000 5.781628 4.614107 0.328042 0.077214 -18.127483 -3.167572 0.000000 0.000000 0.000000 -29.057670 6.160904 -36.355946 -8.419706 -58.940059 -2.207245 0.000000 0.000000 0.000000 5.781628 4.614107 0.328042 -4.118484 20.809225 17.830216 0.000000 0.000000 0.000000 -50.560899 -13.347421 21.143926 -74.219745 76.810689 73.723354 0.000000 0.000000 0.000000 
4.307052 60.552879 134.840225 0.000000 0.000000 0.000000 24.918987 -56.962552 28.135617 -36.322249 -37.201561 48.251998 61.563227 -2.467856 -44.990272 -12.844108 6.302248 -21.456583 -0.422666 1.405264 0.709027 0.000000 0.000000 0.000000 24.918987 -56.962552 28.135617 -59.456694 16.354555 -34.652060 75.021541 12.413286 0.467405 -23.947174 -4.906912 22.820234 -0.388477 -1.164564 -0.730250 0.000000 0.000000 0.000000 24.918987 -56.962552 28.135617 19.147657 -1.047866 -14.096331 3.657556 3.957447 -1.914558 0.000000 0.000000 0.000000 0.000000 0.000000 0.000000 6.415501 4.002027 -0.303113 -21.198855 23.291343 2.920744 -7.720431 22.687059 -6.536637 0.000000 0.000000 0.000000 6.415501 4.002027 -0.303113 -1.596224 -17.506893 -3.477267 0.000000 0.000000 0.000000 -29.286717 5.006830 -37.264573 -5.783837 -51.467101 -0.606056 0.000000 0.000000 0.000000 6.415501 4.002027 -0.303113 -4.907026 19.131555 15.623964 0.000000 0.000000 0.000000 -49.215772 -16.746989 22.215967 -93.356856 77.787973 93.364362 0.000000 0.000000 0.000000 
4.154003 64.031021 135.671906 0.000000 0.000000 0.000000 21.915017 -57.652753 25.158732 -37.628865 -31.747925 41.457828 58.386233 -1.487970 -39.590174 -12.616061 7.062308 -18.804995 -0.409435 1.376976 0.717672 0.000000 0.000000 0.000000 21.915017 -57.652753 25.158732 -54.998018 12.167324 -34.088364 70.072857 11.522710 -0.761873 -22.940626 -4.454252 22.544049 -0.393220 -1.136134 -0.726846 0.000000 0.000000 0.000000 21.915017 -57.652753 25.158732 16.862847 -0.766079 -12.478879 4.648817 3.226054 -2.543068 0.000000 0.000000 0.000000 0.000000 0.000000 0.000000 7.152940 3.332285 -1.127352 -22.313087 23.865489 4.847690 -6.100646 23.355019 -5.873246 0.000000 0.000000 0.000000 7.152940 3.332285 -1.127352 -2.848356 -16.787811 -3.730446 0.000000 0.000000 0.000000 -29.681219 4.021471 -37.550427 -4.035414 -43.996640 0.119604 0.000000 0.000000 0.000000 7.152940 3.332285 -1.127352 -5.159931 17.677991 11.826615 0.000000 0.000000 0.000000 -46.950942 -20.292828 24.185644 -112.514266 77.299682 112.970707 0.000000 0.000000 0.000000 
3.835012 67.592896 136.248688 0.000000 0.000000 0.000000 18.777732 -58.491862 22.077827 -37.214887 -25.501216 36.394421 54.484870 -0.834683 -34.102397 -11.960600 7.356560 -16.682064 -0.400130 1.350517 0.731163 0.000000 0.000000 0.000000 18.777732 -58.491862 22.077827 -50.668167 8.042602 -33.156262 64.900485 10.824420 -1.862686 -21.626037 -3.762110 22.021589 -0.395528 -1.109374 -0.726412 0.000000 0.000000 0.000000 18.777732 -58.491862 22.077827 15.037116 -0.541853 -10.669236 5.534849 2.524192 -3.327332 0.000000 0.000000 0.000000 0.000000 0.000000 0.000000 7.696880 2.677786 -2.084856 -22.888145 24.424639 6.643444 -4.810223 24.057767 -5.397043 0.000000 0.000000 0.000000 7.696880 2.677786 -2.084856 -4.038088 -15.970452 -4.044120 0.000000 0.000000 0.000000 -29.624265 3.765146 -37.363512 -2.922566 -38.559888 0.308890 0.000000 0.000000 0.000000 7.696880 2.677786 -2.084856 -5.248827 16.552660 8.031578 0.000000 0.000000 0.000000 -44.785888 -22.778713 26.248180 -124.610518 76.279143 125.359434 0.000000 0.000000 0.000000 
3.350769 71.183159 136.637192 0.000000 0.000000 0.000000 15.745888 -59.231086 19.141462 -35.842719 -18.827831 32.522663 49.907492 -0.654364 -28.665911 -10.830306 7.236795 -15.016794 -0.403879 1.325994 0.731140 0.000000 0.000000 0.000000 15.745888 -59.231086 19.141462 -46.301552 4.228613 -32.248926 59.480586 9.635022 -2.797301 -20.149089 -2.385860 21.839651 -0.402368 -1.084939 -0.721319 0.000000 0.000000 0.000000 15.745888 -59.231086 19.141462 13.685569 -0.363088 -8.844275 6.216530 1.828913 -4.166234 0.000000 0.000000 0.000000 0.000000 0.000000 0.000000 8.017370 2.050030 -3.060643 -23.047891 24.904973 8.176063 -3.777184 24.722642 -5.010246 0.000000 0.000000 0.000000 8.017370 2.050030 -3.060643 -4.898548 -14.546324 -4.050993 0.000000 0.000000 0.000000 -29.064313 3.915981 -37.706766 -2.059492 -35.366668 0.356561 0.000000 0.000000 0.000000 8.017370 2.050030 -3.060643 -5.386201 15.990666 5.503452 0.000000 0.000000 0.000000 -43.783005 -24.487721 27.082996 -132.932885 75.068765 133.897594 0.000000 0.000000 0.000000 
